<?xml version="1.0" encoding="utf-8"?>
<!-- Generator: Adobe Illustrator 26.0.3, SVG Export Plug-In . SVG Version: 6.00 Build 0)  -->
<svg version="1.1" id="Warstwa_1" xmlns="http://www.w3.org/2000/svg" xmlns:xlink="http://www.w3.org/1999/xlink" x="0px" y="0px"
	 viewBox="0 0 430 430" style="enable-background:new 0 0 430 430;" xml:space="preserve">
<style type="text/css">
	.st0{fill:#ffffff;}
	.st1{fill:#000000;}
	.st2{opacity:0.5;fill:#000000;enable-background:new    ;}
	.st3{opacity:0.5;fill:#ffffff;enable-background:new    ;}
	.st4{fill:#ffffff;}
	.st5{opacity:0.5;fill:#ffffff;enable-background:new    ;}
	.st6{fill:#6c16c7;}
	.st7{fill:#000000;}
</style>
<path class="st0" d="M380.6,215c0,61-49.4,110.4-110.4,110.4h-0.1c-61,0-110.4-49.4-110.4-110.4s49.4-110.4,110.4-110.4h0.1
	C331.2,104.6,380.6,154,380.6,215z"/>
<path class="st1" d="M310.2,215c0,22.1-17.9,40-40,40h-0.1c-22.1,0-40-17.9-40-40c0-22.1,17.9-40,40-40h0.1
	C292.3,175,310.2,192.9,310.2,215z"/>
<path class="st2" d="M287.2,178.8v72.5c-5.2,2.4-10.9,3.8-17,3.8h0V175h0C276.3,175,282.1,176.3,287.2,178.8z"/>
<path class="st3" d="M287.2,105.9v72.9c-5.2-2.4-10.9-3.8-17-3.8h0v-70.4h0C276,104.6,281.7,105.1,287.2,105.9z"/>
<path class="st3" d="M287.2,251.2v72.9c-5.5,0.9-11.2,1.3-17,1.3h0V255h0C276.3,255,282.1,253.7,287.2,251.2z"/>
<rect x="49.4" y="104.6" class="st4" width="220.8" height="220.8"/>
<rect x="49.4" y="104.6" class="st1" width="34.1" height="220.8"/>
<rect x="49.4" y="104.6" class="st2" width="17.1" height="220.8"/>
<rect x="83.5" y="104.6" class="st5" width="17.1" height="220.8"/>
<path class="st6" d="M270.2,328.9c-1.9,0-3.5-1.6-3.5-3.5s1.5-3.5,3.5-3.5c59,0,106.9-48,106.9-106.9s-48-106.9-106.9-106.9
	c-1.9,0-3.5-1.6-3.5-3.5s1.5-3.5,3.5-3.5h0c62.8,0,113.9,51.1,113.9,113.9S333,328.9,270.2,328.9z"/>
<path class="st6" d="M270.2,258.5c-1.9,0-3.5-1.6-3.5-3.5s1.5-3.5,3.5-3.5h0c20.1,0,36.5-16.4,36.5-36.5s-16.4-36.5-36.5-36.5
	c-1.9,0-3.5-1.6-3.5-3.5s1.5-3.5,3.5-3.5c24,0,43.6,19.5,43.6,43.5S294.2,258.5,270.2,258.5z"/>
<path class="st6" d="M270.2,328.9H49.4c-1.9,0-3.5-1.6-3.5-3.5V104.6c0-1.9,1.6-3.5,3.5-3.5h220.8c1.9,0,3.5,1.6,3.5,3.5v220.8
	C273.7,327.3,272.1,328.9,270.2,328.9z M52.9,321.9h213.8V108.1H52.9V321.9z"/>
<path class="st6" d="M83.5,328.9c-1.9,0-3.5-1.6-3.5-3.5V104.6c0-1.9,1.6-3.5,3.5-3.5s3.5,1.6,3.5,3.5v220.8
	C87,327.3,85.4,328.9,83.5,328.9z"/>
<g>
	<path class="st6" d="M171,298.6h-39.2c-1.9,0-3.5-1.6-3.5-3.5s1.6-3.5,3.5-3.5H171c1.9,0,3.5,1.6,3.5,3.5S172.9,298.6,171,298.6z"
		/>
	<path class="st6" d="M211.8,298.6H195c-1.9,0-3.5-1.6-3.5-3.5s1.6-3.5,3.5-3.5h16.8c1.9,0,3.5,1.6,3.5,3.5S213.7,298.6,211.8,298.6
		z"/>
</g>
<g>
	<path class="st7" d="M143.2,267.9c-8.1,0-14.8-6.6-14.8-14.8v-7.1c0-8.1,6.6-14.8,14.8-14.8s14.8,6.6,14.8,14.8v7.1
		C158,261.3,151.4,267.9,143.2,267.9z M143.2,238.3c-4.3,0-7.8,3.5-7.8,7.8v7.1c0,4.3,3.5,7.8,7.8,7.8s7.8-3.5,7.8-7.8v-7.1
		C151,241.8,147.5,238.3,143.2,238.3z"/>
	<path class="st7" d="M200.3,241.6c-8.1,0-14.8-6.6-14.8-14.8v-7.1c0-8.1,6.6-14.8,14.8-14.8s14.8,6.6,14.8,14.8v7.1
		C215.1,235,208.5,241.6,200.3,241.6z M200.3,211.9c-4.3,0-7.8,3.5-7.8,7.8v7.1c0,4.3,3.5,7.8,7.8,7.8s7.8-3.5,7.8-7.8v-7.1
		C208.1,215.4,204.6,211.9,200.3,211.9z"/>
	<path class="st7" d="M154.5,251c-1.9,0-3.5-1.6-3.5-3.5v-80.3c0-1.9,1.6-3.5,3.5-3.5s3.5,1.6,3.5,3.5v80.4
		C158,249.4,156.4,251,154.5,251z"/>
	<path class="st7" d="M211.6,223.1c-1.9,0-3.5-1.6-3.5-3.5V140c0-1.9,1.6-3.5,3.5-3.5s3.5,1.6,3.5,3.5v79.6
		C215.1,221.5,213.6,223.1,211.6,223.1z"/>
	<path class="st7" d="M154.5,203.2c-1.3,0-2.6-0.7-3.2-2c-0.8-1.8-0.1-3.8,1.7-4.7l57.1-27.1c1.8-0.8,3.8-0.1,4.7,1.7
		s0.1,3.8-1.7,4.7L156,202.9C155.5,203.1,155,203.2,154.5,203.2z"/>
	<path class="st7" d="M154.5,170.6c-1.3,0-2.6-0.7-3.2-2c-0.8-1.8-0.1-3.8,1.7-4.7l57.1-27.1c1.8-0.8,3.8-0.1,4.7,1.7
		s0.1,3.8-1.7,4.7L156,170.3C155.5,170.5,155,170.6,154.5,170.6z"/>
</g>
</svg>
