<svg xmlns="http://www.w3.org/2000/svg" viewBox="0 0 430 430">
  <g style="isolation: isolate">
    <g id="Warstwa_1" data-name="Warstwa 1">
      <g>
        <g>
          <rect x="321.6" y="287.49" width="16.84" height="84.62" transform="translate(-136.55 329.96) rotate(-45)" style="fill: #c69cf4"/>
          <rect x="321.6" y="287.49" width="16.84" height="84.62" transform="translate(-136.55 329.96) rotate(-45)" style="fill: #c69cf4;opacity: 0.5;mix-blend-mode: multiply"/>
          <rect x="337.05" y="307.4" width="34.68" height="93.56" rx="10.53" transform="translate(-146.64 354.33) rotate(-45)" style="fill: #d4d1fa"/>
        </g>
        <path d="M295.66,88.75a146.46,146.46,0,1,1-207.12,0A146.45,146.45,0,0,1,295.66,88.75Z" style="fill: #6c16c7"/>
        <path d="M108.1,108.31c52.73-52.74,140-53.62,197.41-9.11-3.07-3.74-6.35-7.38-9.85-10.88A146.46,146.46,0,0,0,88.54,295.45a149.67,149.67,0,0,0,14,12.33C55.39,250.25,54.4,162,108.1,108.31Z" style="fill: #6c16c7;opacity: 0.5;mix-blend-mode: multiply"/>
        <path d="M82.2,150.88a3.54,3.54,0,0,1-1.31-.25A3.5,3.5,0,0,1,79,146.07a121.26,121.26,0,0,1,75.63-70,3.5,3.5,0,0,1,2.11,6.67,114.41,114.41,0,0,0-46.13,28.08,113.16,113.16,0,0,0-25.12,37.91A3.5,3.5,0,0,1,82.2,150.88Z" style="fill: #c69cf4"/>
        <path d="M303.44,81a157.47,157.47,0,1,0-5.89,228.29c2-1.81,4-3.67,5.89-5.6s4.07-4.18,6-6.33A157.47,157.47,0,0,0,303.44,81ZM296,296.17A146.88,146.88,0,1,1,155.51,50.05c.57-.16,1.15-.3,1.72-.43.87-.22,1.73-.42,2.6-.61.49-.12,1-.22,1.48-.32.93-.21,1.87-.4,2.81-.58,1.13-.23,2.26-.43,3.39-.62h.08q1.74-.3,3.48-.54c.58-.09,1.17-.17,1.75-.24l1.74-.22,1.75-.2,2-.2,2-.17c2-.16,3.95-.28,5.92-.36l1.62-.06c1.45,0,2.89-.06,4.34-.06l2.18,0c.73,0,1.47,0,2.2,0s1.4,0,2.1.08c1.69.07,3.39.17,5.08.31L205,46l1.25.12,1.67.17,1.79.2q3.47.42,6.92,1h.07c1.14.19,2.27.4,3.4.62.9.17,1.8.36,2.69.55.64.13,1.27.27,1.91.42s1.54.35,2.3.54c.57.13,1.14.27,1.71.43q3.44.87,6.82,1.92h.05A146.92,146.92,0,0,1,296,296.17Z" style="fill: #c69cf4"/>
      </g>
    </g>
  </g>
</svg>
