<svg xmlns="http://www.w3.org/2000/svg" viewBox="0 0 430 430">
  <defs>
    <style>
      .cls-1 {
        isolation: isolate;
      }

      .Styl-grafiki-9, .cls-2 {
        fill: #ffffff;
      }

      .Styl-grafiki-9 {
        mix-blend-mode: multiply;
        opacity: 0.5;
      }

      .cls-3 {
        fill: #eeca66;
      }
    </style>
  </defs>
  <g class="cls-1">
    <g id="Warstwa_1" data-name="Warstwa 1">
      <g>
        <circle class="cls-2" cx="215" cy="215" r="86.01"/>
        <path class="Styl-grafiki-9" d="M238.68,295A85.95,85.95,0,0,1,206.9,129.19a86,86,0,1,0,40.22,165.4Q243,295,238.68,295Z"/>
        <path class="cls-3" d="M215,96.87a3.5,3.5,0,0,1-3.5-3.5V54.88a3.5,3.5,0,1,1,7,0V93.37A3.5,3.5,0,0,1,215,96.87Z"/>
        <g>
          <line class="cls-2" x1="128.99" y1="128.99" x2="82.91" y2="82.91"/>
          <path class="cls-3" d="M129,132.49a3.49,3.49,0,0,1-2.47-1L80.43,85.38a3.5,3.5,0,0,1,4.95-4.95l46.09,46.09a3.5,3.5,0,0,1-2.48,6Z"/>
        </g>
        <g>
          <line class="cls-2" x1="93.37" y1="215" x2="54.88" y2="215"/>
          <path class="cls-3" d="M93.37,218.5H54.88a3.5,3.5,0,1,1,0-7H93.37a3.5,3.5,0,0,1,0,7Z"/>
        </g>
        <g>
          <line class="cls-2" x1="128.99" y1="301.01" x2="82.92" y2="347.08"/>
          <path class="cls-3" d="M82.92,350.58a3.5,3.5,0,0,1-2.48-6l46.08-46.08a3.5,3.5,0,1,1,5,5L85.39,349.56A3.49,3.49,0,0,1,82.92,350.58Z"/>
        </g>
        <g>
          <line class="cls-2" x1="215" y1="336.63" x2="215" y2="375.12"/>
          <path class="cls-3" d="M215,378.62a3.5,3.5,0,0,1-3.5-3.5V336.63a3.5,3.5,0,0,1,7,0v38.49A3.5,3.5,0,0,1,215,378.62Z"/>
        </g>
        <g>
          <line class="cls-2" x1="301.01" y1="301.01" x2="347.09" y2="347.09"/>
          <path class="cls-3" d="M347.09,350.59a3.49,3.49,0,0,1-2.47-1l-46.09-46.09a3.5,3.5,0,0,1,5-5l46.09,46.09a3.5,3.5,0,0,1-2.48,6Z"/>
        </g>
        <g>
          <line class="cls-2" x1="336.63" y1="215" x2="375.12" y2="215"/>
          <path class="cls-3" d="M375.12,218.5H336.63a3.5,3.5,0,0,1,0-7h38.49a3.5,3.5,0,0,1,0,7Z"/>
        </g>
        <g>
          <line class="cls-2" x1="301.01" y1="128.99" x2="347.09" y2="82.91"/>
          <path class="cls-3" d="M301,132.49a3.5,3.5,0,0,1-2.48-6l46.09-46.09a3.5,3.5,0,1,1,4.95,4.95l-46.09,46.09A3.49,3.49,0,0,1,301,132.49Z"/>
        </g>
        <path class="cls-3" d="M215,304.51A89.51,89.51,0,1,1,304.51,215,89.62,89.62,0,0,1,215,304.51Zm0-172A82.51,82.51,0,1,0,297.51,215,82.61,82.61,0,0,0,215,132.49Z"/>
      </g>
    </g>
  </g>
</svg>
